<svg xmlns="http://www.w3.org/2000/svg" xmlns:xlink="http://www.w3.org/1999/xlink" xmlns:fi="http://pattern.flaticon.com/" x="0" y="0" width="3780" height="1890" viewBox="0 0 3780 1890"><rect x="0px" y="0px" width="100%" height="100%" opacity="1" fill="#0f2031"/><defs><g transform="matrix(0.1171875 0 0 0.1171875 16 67.00000110149358)" id="L1_25"><g><path d="m502.681 198.27v68.85l-2.48 1.68-24.29 16.48-58.97-40-58.97 40-58.97-40-58.97 40-58.96-40-58.97 40-26.76-18.15v-219.75c0-22.03 17.85-39.88 39.87-39.88h176.7c15.88 0 67.31 43.85 112.77 90.03 41.48 42.15 78 86.24 78 100.74z" fill="#ddeafb"/><path d="m475.911 332.15 26.77-18.16v150.63c0 22.03-17.85 39.88-39.87 39.88h-327.6c-18.82 0-34.59-13.04-38.78-30.58l-.16-22.8-.93-135.78v-1.34l26.76 18.15 58.97-40 58.96 40 58.97-40 58.97 40 58.97-40z" fill="#ddeafb"/><path d="m502.681 198.27v68.85l-2.48 1.68c-15.77-94.08-100.61-101.12-129.94-130.45l54.42-40.82c41.48 42.15 78 86.24 78 100.74z" fill="#cbe2ff"/><path d="m311.906 7.5h-97.57c.11 0 .22.01.34.01 119.72 3 125.26 100.52 157.15 132.41l40.82-54.42c-42.15-41.48-86.24-78-100.74-78z" fill="#cbe2ff"/><path d="m502.681 198.276v16.868c0-35.514-28.798-64.312-64.312-64.312h-39.143c-22.019 0-39.877-17.858-39.877-39.877v-39.143c0-35.514-28.798-64.312-64.312-64.312h16.868c30.373 0 59.512 12.068 80.989 33.545l76.242 76.242c21.476 21.476 33.545 50.615 33.545 80.989z" fill="#bed8fb"/><circle cx="96" cy="141" r="87" fill="#dd636e"/><path d="m107.749 228.264c-3.7.48-7.48.73-11.31.73-48.12 0-87.12-39.01-87.12-87.13 0-48.11 39-87.12 87.12-87.12 3.83 0 7.61.25 11.31.73-42.78 5.54-75.82 42.11-75.82 86.39 0 44.29 33.04 80.86 75.82 86.4z" fill="#da4a54"/></g><g><path d="m510.181 198.276c0-32.598-12.693-63.244-35.741-86.292l-76.242-76.242c-23.05-23.049-53.695-35.742-86.293-35.742h-.006-176.7c-26.12 0-47.37 21.255-47.37 47.38v.257c-48.153 4.369-86.01 44.956-86.01 94.223 0 49.273 37.856 89.864 86.01 94.233v31.027c0 2.486 1.232 4.811 3.29 6.207l26.769 18.16c2.543 1.725 5.88 1.724 8.421 0l54.761-37.144 54.749 37.144c2.543 1.725 5.88 1.724 8.421 0l54.76-37.144 54.76 37.144c2.541 1.725 5.879 1.724 8.42 0l54.761-37.144 54.76 37.144c1.271.862 2.74 1.293 4.21 1.293s2.939-.431 4.21-1.293l26.76-18.15c2.058-1.396 3.29-3.721 3.29-6.207zm-122.591-151.928 76.242 76.242c12.185 12.184 21.069 26.788 26.205 42.729-13.069-13.549-31.401-21.988-51.669-21.988h-39.143c-17.853 0-32.377-14.524-32.377-32.377v-39.142c0-20.268-8.438-38.599-21.987-51.669 15.942 5.137 30.545 14.021 42.729 26.205zm88.319 229.87-54.76-37.144c-2.541-1.724-5.879-1.724-8.42 0l-54.761 37.144-54.76-37.144c-2.541-1.724-5.879-1.724-8.42 0l-54.76 37.144-54.749-37.144c-2.543-1.725-5.88-1.724-8.421 0l-54.761 37.144-19.27-13.072v-26.876c49.21-3.293 88.24-44.375 88.24-94.41 0-29.062-13.078-56.098-35.881-74.177-3.244-2.573-7.963-2.029-10.536 1.218-2.573 3.246-2.028 7.963 1.218 10.536 19.191 15.217 30.199 37.969 30.199 62.423 0 43.908-35.718 79.63-79.62 79.63-43.908 0-79.63-35.722-79.63-79.63 0-43.903 35.722-79.62 79.63-79.62 7.619 0 15.133 1.069 22.331 3.177 3.979 1.166 8.142-1.115 9.306-5.089 1.165-3.975-1.114-8.141-5.089-9.306-6.547-1.918-13.307-3.107-20.168-3.564v-.078c0-17.854 14.521-32.38 32.37-32.38h159.838c31.326 0 56.812 25.486 56.812 56.812v39.143c0 26.124 21.253 47.377 47.377 47.377h39.143c31.171 0 56.551 25.237 56.801 56.35v48.472z"/><path d="m507.608 308.351c-2.641-2.287-6.383-2.434-9.149-.558l-22.55 15.294-54.76-37.144c-2.541-1.725-5.878-1.724-8.421 0l-19.519 13.243c-3.399 2.306-4.586 6.937-2.382 10.403 2.279 3.586 7.05 4.555 10.543 2.187l15.569-10.563 54.76 37.144c2.541 1.725 5.879 1.724 8.42 0l15.05-10.208v136.471c0 17.883-14.497 32.38-32.38 32.38h-327.59c-.462 0-.921-.01-1.379-.029-16.775-.699-29.846-14.883-29.961-31.673l-.941-137.098 14.97 10.156c2.543 1.725 5.88 1.724 8.421 0l54.761-37.144 54.749 37.144c2.543 1.725 5.88 1.724 8.421 0l54.76-37.144 54.76 37.144c2.54 1.724 5.877 1.724 8.419.001l11.172-7.575c3.399-2.304 4.586-6.933 2.384-10.399-2.279-3.587-7.052-4.559-10.543-2.192l-7.221 4.896-54.761-37.145c-2.541-1.724-5.879-1.724-8.42 0l-54.76 37.144-54.749-37.144c-2.543-1.725-5.88-1.724-8.421 0l-54.761 37.144-22.379-15.18c-1.84-1.248-4.138-1.747-6.287-1.175-3.377.899-5.604 3.914-5.604 7.259v1.402l1.09 154.58c0 17.853 14.019 42.029 46.28 42.029h327.6c26.162 0 47.37-21.208 47.37-47.37v-150.416c0-2.225-.879-4.407-2.561-5.864z"/><path d="m131.2 96.501-34.755 34.755-34.756-34.755c-2.93-2.929-7.678-2.929-10.607 0s-2.929 7.677 0 10.606l34.756 34.756-34.756 34.757c-2.929 2.929-2.929 7.677 0 10.606 1.465 1.465 3.385 2.197 5.304 2.197s3.839-.732 5.304-2.197l34.755-34.755 34.755 34.755c1.465 1.465 3.385 2.197 5.304 2.197s3.839-.732 5.304-2.197c2.929-2.929 2.929-7.677 0-10.606l-34.756-34.756 34.756-34.756c2.929-2.929 2.929-7.677 0-10.606-2.93-2.93-7.678-2.93-10.608-.001z"/></g></g><g transform="matrix(0.1171875 0 0 0.1171875 157 309)" id="L1_26"><path d="m0 96v384c0 17.679688 14.320312 32 32 32h448c17.679688 0 32-14.320312 32-32v-384zm0 0" fill="#e1eaf7"/><path d="m0 0h512v128h-512zm0 0" fill="#b0bec5"/><path d="m64 48h32v32h-32zm0 0" fill="#ffffff"/><path d="m128 48h32v32h-32zm0 0" fill="#ffffff"/><path d="m432 80h-224c-8.832031 0-16-7.167969-16-16s7.167969-16 16-16h224c8.832031 0 16 7.167969 16 16s-7.167969 16-16 16zm0 0" fill="#90a4ae"/><path d="m384 320c0 70.691406-57.308594 128-128 128s-128-57.308594-128-128 57.308594-128 128-128 128 57.308594 128 128zm0 0" fill="#e76e54"/><path d="m315.3125 283.3125-22.625-22.625-36.6875 36.6875-36.6875-36.6875-22.625 22.625 36.6875 36.6875-36.6875 36.6875 22.625 22.625 36.6875-36.6875 36.6875 36.6875 22.625-22.625-36.6875-36.6875zm0 0" fill="#ffffff"/></g><g transform="matrix(0.1171877309679985 0 0 0.1171877309679985 189 152)" id="L1_30"><g><path d="M253.378,117.865l-89.844-89.843C145.462,9.952,121.4,0,95.779,0S46.095,9.952,28.022,28.023   c-37.36,37.361-37.36,98.151,0,135.513l89.843,89.842c18.072,18.071,42.136,28.024,67.757,28.024s49.685-9.953,67.756-28.024   c18.071-18.072,28.024-42.135,28.024-67.756C281.403,160.001,271.45,135.938,253.378,117.865z M129.843,61.715l89.844,89.842   c18.783,18.784,18.783,49.347,0.001,68.131c-18.786,18.782-49.351,18.782-68.132,0l-44.922-44.921v0.001l-44.921-44.922   c-18.783-18.784-18.783-49.347,0-68.131C80.497,42.931,111.06,42.931,129.843,61.715z" fill="#4acfd9"/><path d="M483.974,348.462l-89.843-89.844c-18.072-18.071-42.135-28.023-67.756-28.023   c-25.621,0-49.685,9.952-67.756,28.023c-18.072,18.072-28.025,42.135-28.025,67.756c0,25.622,9.952,49.686,28.025,67.757   l89.842,89.843c18.072,18.071,42.135,28.025,67.756,28.025s49.685-9.953,67.756-28.025c18.071-18.072,28.025-42.135,28.025-67.756   C511.998,390.597,502.046,366.535,483.974,348.462z M382.153,450.283l-44.922-44.921L292.31,360.44   c-18.784-18.783-18.784-49.347,0-68.131c18.783-18.783,49.346-18.783,68.13,0l89.843,89.843c18.783,18.784,18.783,49.347,0,68.131   C431.499,469.068,400.937,469.068,382.153,450.283z" fill="#4acfd9"/></g><path d="M361.189,327.5L169.524,135.834c-9.29-9.289-24.402-9.289-33.69,0  c-4.5,4.499-6.979,10.481-6.979,16.846c0,6.364,2.479,12.347,6.978,16.846L327.498,361.19c4.5,4.499,10.482,6.978,16.846,6.978  c6.363,0,12.346-2.479,16.845-6.978c4.5-4.499,6.979-10.481,6.979-16.846C368.167,337.981,365.688,331.999,361.189,327.5z" fill="#0295aa"/><g><path d="M341.421,174.282c-2.032,0-4.065-0.775-5.616-2.326c-3.101-3.101-3.101-8.13,0-11.23l44.47-44.47   c3.102-3.101,8.13-3.101,11.231,0s3.101,8.13,0,11.23l-44.47,44.47C345.486,173.506,343.453,174.282,341.421,174.282z" fill="#fd6a33"/><path d="M307.539,160.247c-4.387,0-7.941-3.555-7.941-7.941v-62.89c0-4.386,3.554-7.941,7.941-7.941   c4.387,0,7.941,3.555,7.941,7.941v62.89C315.48,156.692,311.926,160.247,307.539,160.247z" fill="#fd6a33"/><path d="M418.346,208.164h-62.889c-4.387,0-7.941-3.555-7.941-7.941c0-4.386,3.554-7.941,7.941-7.941h62.889   c4.387,0,7.941,3.555,7.941,7.941C426.287,204.608,422.731,208.164,418.346,208.164z" fill="#fd6a33"/></g></g></defs><g fi:class="KUsePattern"><pattern id="pattern_L1_25" width="350" height="350" patternUnits="userSpaceOnUse"><use xlink:href="#L1_25" x="-350" y="-350"/><use xlink:href="#L1_25" x="0" y="-350"/><use xlink:href="#L1_25" x="350" y="-350"/><use xlink:href="#L1_25" x="-350" y="0"/><use xlink:href="#L1_25" x="0" y="0"/><use xlink:href="#L1_25" x="350" y="0"/><use xlink:href="#L1_25" x="-350" y="350"/><use xlink:href="#L1_25" x="0" y="350"/><use xlink:href="#L1_25" x="350" y="350"/></pattern><rect x="0" y="0" width="100%" height="100%" fill="url(#pattern_L1_25)"/></g><g fi:class="KUsePattern"><pattern id="pattern_L1_26" width="350" height="350" patternUnits="userSpaceOnUse"><use xlink:href="#L1_26" x="-350" y="-350"/><use xlink:href="#L1_26" x="0" y="-350"/><use xlink:href="#L1_26" x="350" y="-350"/><use xlink:href="#L1_26" x="-350" y="0"/><use xlink:href="#L1_26" x="0" y="0"/><use xlink:href="#L1_26" x="350" y="0"/><use xlink:href="#L1_26" x="-350" y="350"/><use xlink:href="#L1_26" x="0" y="350"/><use xlink:href="#L1_26" x="350" y="350"/></pattern><rect x="0" y="0" width="100%" height="100%" fill="url(#pattern_L1_26)"/></g><g fi:class="KUsePattern"><pattern id="pattern_L1_30" width="350" height="350" patternUnits="userSpaceOnUse"><use xlink:href="#L1_30" x="-350" y="-350"/><use xlink:href="#L1_30" x="0" y="-350"/><use xlink:href="#L1_30" x="350" y="-350"/><use xlink:href="#L1_30" x="-350" y="0"/><use xlink:href="#L1_30" x="0" y="0"/><use xlink:href="#L1_30" x="350" y="0"/><use xlink:href="#L1_30" x="-350" y="350"/><use xlink:href="#L1_30" x="0" y="350"/><use xlink:href="#L1_30" x="350" y="350"/></pattern><rect x="0" y="0" width="100%" height="100%" fill="url(#pattern_L1_30)"/></g></svg>