<svg id="color" enable-background="new 0 0 24 24" height="512" viewBox="0 0 24 24" width="512" xmlns="http://www.w3.org/2000/svg"><path d="m13.25 0h-10.5c-1.52 0-2.75 1.23-2.75 2.75v15.5c0 1.52 1.23 2.75 2.75 2.75h6.75v-6c0-.08 0-.16.02-.23.02-.45.16-.88.39-1.27.53-.93 1.55-1.7 2.92-2.23.91-.35 1.98-.59 3.17-.69v-7.83c0-1.52-1.23-2.75-2.75-2.75z" fill="#eceff1"/><path d="m8 0h-5.25c-1.52 0-2.75 1.23-2.75 2.75v15.5c0 1.52 1.23 2.75 2.75 2.75h5.25z" fill="#cdd0d2"/><path id="Fill-535_3_" d="m24 18v3c0 1.97-3.27 3-6.5 3s-6.5-1.03-6.5-3v-3z" fill="#ffc107"/><path id="Fill-536_3_" d="m24 17v2c0 1.97-3.27 3-6.5 3s-6.5-1.03-6.5-3v-2z" fill="#ffd54f"/><path id="Fill-537_3_" d="m24 15v2c0 1.97-3.27 3-6.5 3s-6.5-1.03-6.5-3v-2z" fill="#ffc107"/><path id="Fill-538_3_" d="m11 15c0 1.657 2.91 3 6.5 3s6.5-1.343 6.5-3-2.91-3-6.5-3-6.5 1.343-6.5 3z" fill="#ffd54f"/><path d="m13 10c0 .44-.06.86-.17 1.27-1.37.53-2.39 1.3-2.92 2.23-.23.39-.37.82-.39 1.27-.48.15-.99.23-1.52.23-1.38 0-2.63-.56-3.53-1.47l3.53-3.53v-5c2.76 0 5 2.24 5 5z" fill="#2196f3"/><path d="m8 5v5l-3.533 3.533c-.909-.9-1.467-2.15-1.467-3.533 0-2.758 2.242-5 5-5z" fill="#ffc107"/><path d="m13 10c0 .44-.06.86-.16 1.27h-.01c-1.37.53-2.39 1.3-2.92 2.23-.23.39-.37.82-.39 1.27-.48.15-.99.23-1.52.23-1.38 0-2.63-.56-3.53-1.47l3.53-3.53z" fill="#1d83d4"/><path d="m8 10h-5c0 1.384.559 2.634 1.467 3.533z" fill="#dea806"/><path d="m11 18v3c0 1.97 3.27 3 6.5 3v-2c-3.23 0-6.5-1.03-6.5-3z" fill="#dea806"/><path d="m11 17v1 1c0 1.97 3.27 3 6.5 3v-2c-3.23 0-6.5-1.03-6.5-3z" fill="#deb945"/><path d="m11 15v2c0 1.97 3.27 3 6.5 3v-2c-3.59 0-6.5-1.343-6.5-3z" fill="#dea806"/><path d="m17.5 12c-3.59 0-6.5 1.343-6.5 3 0 1.657 2.91 3 6.5 3z" fill="#deb945"/></svg>