<?xml version="1.0" encoding="iso-8859-1"?>
<!-- Generator: Adobe Illustrator 19.0.0, SVG Export Plug-In . SVG Version: 6.00 Build 0)  -->
<svg version="1.1" id="Capa_1" xmlns="http://www.w3.org/2000/svg" xmlns:xlink="http://www.w3.org/1999/xlink" x="0px" y="0px"
	 viewBox="0 0 512 512" style="enable-background:new 0 0 512 512;" xml:space="preserve">
<rect x="54.281" y="7.496" style="fill:#FFFFFF;" width="316.793" height="460.674"/>
<g>
	<path style="fill:#E4EAF8;" d="M371.079,237.447v164.036c-1.737,0.109-3.485,0.169-5.252,0.169c-1.41,0-2.81-0.04-4.21-0.109
		c-0.407,1.052-0.804,2.075-1.171,3.058c-6.106,16.163-12.669,38.403-14.962,63.572h-76.637
		c7.893-22.934,21.654-56.661,42.314-86.754c0.099-0.139,0.199-0.268,0.288-0.407c-17.037-15.071-27.809-37.062-27.809-61.546
		c0-45.313,36.874-82.187,82.187-82.187C367.594,237.278,369.342,237.337,371.079,237.447z"/>
	<rect x="54.291" y="7.5" style="fill:#E4EAF8;" width="15.885" height="460.674"/>
	<rect x="355.193" y="7.5" style="fill:#E4EAF8;" width="15.885" height="460.674"/>
</g>
<rect x="105.951" y="56.674" style="fill:#FFC843;" width="213.462" height="33.756"/>
<path style="fill:#76FFD9;" d="M360.575,367.985c-3.227,6.116-7.248,14.376-11.318,24.354c-0.913,2.254-1.837,4.587-2.75,7.009
	c-10.226,27.074-19.618,64.455-15.975,105.152l-55.519-5.52c0,0,14.843-60.206,48.43-109.133c1.4-2.055,2.839-4.09,4.319-6.096
	c4.021-5.48,8.3-10.762,12.818-15.766H360.575z"/>
<path style="fill:#00C395;" d="M340.579,367.985h19.995c-3.227,6.116-7.248,14.376-11.318,24.354
	c-0.913,2.254-1.837,4.587-2.75,7.009c-8.241-1.986-15.995-5.222-23.063-9.501c1.4-2.055,2.839-4.09,4.319-6.096
	C331.783,378.27,336.062,372.989,340.579,367.985z"/>
<path style="fill:#E50A82;" d="M340.583,367.989h19.996c-3.227,6.112-7.257,14.375-11.322,24.349
	c-7.678-1.74-14.911-4.674-21.493-8.585C331.784,378.275,336.057,372.986,340.583,367.989z"/>
<path style="fill:#76FFD9;" d="M402.204,504.5c3.654-40.815-5.808-78.295-16.074-105.39c-0.913-2.413-1.827-4.756-2.75-6.999
	c-4.031-9.879-8.022-18.05-11.229-24.126h20.006c4.398,4.865,8.568,9.998,12.49,15.319c1.479,2.006,2.929,4.031,4.339,6.086
	c33.796,49.006,48.728,109.589,48.728,109.589L402.204,504.5z"/>
<path style="fill:#00C395;" d="M408.985,389.39c-6.99,4.329-14.684,7.635-22.855,9.72c-0.913-2.413-1.827-4.756-2.75-6.999
	c-4.031-9.879-8.022-18.05-11.229-24.126h20.006c4.398,4.865,8.568,9.998,12.49,15.319
	C406.126,385.31,407.576,387.335,408.985,389.39z"/>
<path style="fill:#E50A82;" d="M404.642,383.306c-6.504,3.966-13.656,6.969-21.26,8.804c-4.035-9.874-8.025-18.053-11.228-24.121
	h20.001C396.557,372.847,400.721,377.987,404.642,383.306z"/>
<circle style="fill:#FFC843;" cx="365.833" cy="319.462" r="67.291"/>
<path style="fill:#FFA816;" d="M332.522,333.763L319.432,321c-8.266-8.059-3.703-22.099,7.721-23.759l18.093-2.629l8.091-16.399
	c5.109-10.355,19.875-10.356,24.984,0l8.092,16.401l18.095,2.631c11.426,1.661,15.986,15.703,7.717,23.761l-13.091,12.757
	l3.091,18.022c1.952,11.379-9.991,20.056-20.21,14.685l-16.188-8.508l-16.188,8.51c-10.22,5.373-22.164-3.306-20.211-14.686
	L332.522,333.763z"/>
<polygon style="fill:#FFC843;" points="383.134,328.561 387.218,352.38 365.829,341.137 351.558,348.637 344.44,352.38 
	345.178,348.077 346.348,341.251 348.524,328.561 345.312,325.434 331.224,311.697 355.137,308.222 365.829,286.55 371.896,298.848 
	376.526,308.222 379.014,308.584 383.952,309.303 390.014,310.18 400.438,311.697 "/>
<path style="fill:#434C54;" d="M167.573,460.677H61.788V15h301.789V67.57c0,4.142,3.357,7.5,7.5,7.5c4.143,0,7.5-3.358,7.5-7.5V7.5
	c0-4.142-3.357-7.5-7.5-7.5H54.288c-4.142,0-7.5,3.358-7.5,7.5v460.677c0,4.142,3.358,7.5,7.5,7.5h113.286
	c4.142,0,7.5-3.358,7.5-7.5S171.715,460.677,167.573,460.677z"/>
<g>
	<path style="fill:#C1C8D2;" d="M105.952,121.234h145.91c4.142,0,7.5-3.358,7.5-7.5c0-4.142-3.358-7.5-7.5-7.5h-145.91
		c-4.142,0-7.5,3.358-7.5,7.5C98.452,117.876,101.81,121.234,105.952,121.234z"/>
	<path style="fill:#C1C8D2;" d="M319.412,106.234h-38.758c-4.143,0-7.5,3.358-7.5,7.5c0,4.142,3.357,7.5,7.5,7.5h38.758
		c4.143,0,7.5-3.358,7.5-7.5C326.912,109.592,323.555,106.234,319.412,106.234z"/>
	<path style="fill:#C1C8D2;" d="M319.412,130.062H173.502c-4.142,0-7.5,3.358-7.5,7.5s3.358,7.5,7.5,7.5h145.91
		c4.143,0,7.5-3.358,7.5-7.5S323.555,130.062,319.412,130.062z"/>
	<path style="fill:#C1C8D2;" d="M105.952,145.062h38.758c4.142,0,7.5-3.358,7.5-7.5s-3.358-7.5-7.5-7.5h-38.758
		c-4.142,0-7.5,3.358-7.5,7.5S101.81,145.062,105.952,145.062z"/>
	<path style="fill:#C1C8D2;" d="M355.704,172.311c0-4.142-3.357-7.5-7.5-7.5H77.16c-4.142,0-7.5,3.358-7.5,7.5s3.358,7.5,7.5,7.5
		h271.044C352.347,179.811,355.704,176.453,355.704,172.311z"/>
	<path style="fill:#C1C8D2;" d="M105.952,216.644h28.296c4.142,0,7.5-3.358,7.5-7.5s-3.358-7.5-7.5-7.5h-28.296
		c-4.142,0-7.5,3.358-7.5,7.5S101.81,216.644,105.952,216.644z"/>
	<path style="fill:#C1C8D2;" d="M181.003,229.995c0-4.142-3.358-7.5-7.5-7.5h-67.551c-4.142,0-7.5,3.358-7.5,7.5
		c0,4.142,3.358,7.5,7.5,7.5h67.551C177.644,237.495,181.003,234.137,181.003,229.995z"/>
	<path style="fill:#C1C8D2;" d="M125.331,258.138h-19.379c-4.142,0-7.5,3.358-7.5,7.5c0,4.142,3.358,7.5,7.5,7.5h19.379
		c4.142,0,7.5-3.358,7.5-7.5C132.831,261.496,129.473,258.138,125.331,258.138z"/>
	<path style="fill:#C1C8D2;" d="M125.331,280.973h-19.379c-4.142,0-7.5,3.358-7.5,7.5s3.358,7.5,7.5,7.5h19.379
		c4.142,0,7.5-3.358,7.5-7.5S129.473,280.973,125.331,280.973z"/>
	<path style="fill:#C1C8D2;" d="M125.331,303.808h-19.379c-4.142,0-7.5,3.358-7.5,7.5s3.358,7.5,7.5,7.5h19.379
		c4.142,0,7.5-3.358,7.5-7.5S129.473,303.808,125.331,303.808z"/>
	<path style="fill:#C1C8D2;" d="M282.512,265.638c0-4.142-3.357-7.5-7.5-7.5H154.399c-4.142,0-7.5,3.358-7.5,7.5
		c0,4.142,3.358,7.5,7.5,7.5h120.613C279.155,273.138,282.512,269.78,282.512,265.638z"/>
	<path style="fill:#C1C8D2;" d="M154.399,295.973h44.382c4.142,0,7.5-3.358,7.5-7.5s-3.358-7.5-7.5-7.5h-44.382
		c-4.142,0-7.5,3.358-7.5,7.5S150.257,295.973,154.399,295.973z"/>
	<path style="fill:#C1C8D2;" d="M154.399,318.809h82.442c4.142,0,7.5-3.358,7.5-7.5s-3.358-7.5-7.5-7.5h-82.442
		c-4.142,0-7.5,3.358-7.5,7.5S150.257,318.809,154.399,318.809z"/>
	<path style="fill:#C1C8D2;" d="M125.331,365.568h-19.379c-4.142,0-7.5,3.358-7.5,7.5s3.358,7.5,7.5,7.5h19.379
		c4.142,0,7.5-3.358,7.5-7.5S129.473,365.568,125.331,365.568z"/>
	<path style="fill:#C1C8D2;" d="M125.331,408.259h-19.379c-4.142,0-7.5,3.358-7.5,7.5s3.358,7.5,7.5,7.5h19.379
		c4.142,0,7.5-3.358,7.5-7.5S129.473,408.259,125.331,408.259z"/>
	<path style="fill:#C1C8D2;" d="M261.551,365.568h-19.379c-4.142,0-7.5,3.358-7.5,7.5s3.358,7.5,7.5,7.5h19.379
		c4.143,0,7.5-3.358,7.5-7.5S265.694,365.568,261.551,365.568z"/>
	<path style="fill:#C1C8D2;" d="M261.551,408.259h-19.379c-4.142,0-7.5,3.358-7.5,7.5s3.358,7.5,7.5,7.5h19.379
		c4.143,0,7.5-3.358,7.5-7.5S265.694,408.259,261.551,408.259z"/>
</g>
<path style="fill:#434C54;" d="M464.996,497.188c-0.131-0.53-3.27-13.19-9.915-31.703c-1.399-3.899-5.697-5.922-9.593-4.525
	c-3.898,1.399-5.924,5.694-4.524,9.593c3.207,8.936,5.579,16.512,7.147,21.844l-37.829,3.762
	c1.915-41.715-8.778-79.363-19.656-106.143c2.522-0.889,4.988-1.899,7.379-3.043c12.013,16.093,23.098,35.695,32.993,58.393
	c1.23,2.821,3.985,4.504,6.879,4.504c1,0,2.018-0.202,2.993-0.627c3.797-1.655,5.533-6.076,3.878-9.873
	c-10.125-23.221-21.502-43.441-33.879-60.24c18.06-13.666,29.755-35.323,29.755-59.665c0-36.892-26.857-67.611-62.041-73.683V95.427
	c0-4.142-3.357-7.5-7.5-7.5c-4.143,0-7.5,3.358-7.5,7.5V244.73c-40.201,1.196-72.544,34.249-72.544,74.736
	c0,24.649,11.992,46.545,30.442,60.178c-19.666,26.854-33.44,57.675-42.119,81.036h-83.931c-4.142,0-7.5,3.358-7.5,7.5
	s3.358,7.5,7.5,7.5h78.671c-4.073,12.358-6.124,20.536-6.362,21.505c-0.521,2.112-0.099,4.346,1.156,6.122
	c1.255,1.776,3.22,2.921,5.384,3.136l55.511,5.52c0.248,0.024,0.496,0.037,0.743,0.037c1.966,0,3.865-0.773,5.276-2.171
	c1.588-1.572,2.392-3.771,2.192-5.998c-0.859-9.602-0.96-19.014-0.487-28.151h33.567c4.143,0,7.5-3.358,7.5-7.5v-67.826
	c10.313,26.761,19.728,63.505,16.15,103.477c-0.199,2.226,0.604,4.425,2.192,5.998c1.411,1.397,3.311,2.17,5.277,2.17
	c0.246,0,0.494-0.012,0.742-0.037l55.51-5.52c2.164-0.215,4.128-1.359,5.383-3.135C465.092,501.531,465.515,499.299,464.996,497.188
	z M306.038,319.466c0-32.969,26.822-59.792,59.792-59.792s59.792,26.823,59.792,59.792c0,32.97-26.822,59.792-59.792,59.792
	S306.038,352.436,306.038,319.466z M295.487,460.68c8.547-22.06,21.396-49.663,38.969-73.345c2.44,1.132,4.95,2.133,7.523,3.001
	c-7.634,18.859-15.16,43.102-18.263,70.344l-1.223,15c-0.324,6.693-0.359,13.529-0.04,20.479l-37.819-3.761
	c1.261-4.27,3.045-9.993,5.363-16.719L295.487,460.68z M338.816,460.68c3.169-26.068,10.622-49.217,17.997-66.984
	c2.228,0.269,4.485,0.438,6.768,0.506v66.478H338.816z"/>
<g>
</g>
<g>
</g>
<g>
</g>
<g>
</g>
<g>
</g>
<g>
</g>
<g>
</g>
<g>
</g>
<g>
</g>
<g>
</g>
<g>
</g>
<g>
</g>
<g>
</g>
<g>
</g>
<g>
</g>
</svg>
