<svg id="Layer_1" enable-background="new 0 0 512 512" height="512" viewBox="0 0 512 512" width="512" xmlns="http://www.w3.org/2000/svg"><g><path d="m122 6h320v448h-320z" fill="#b9c2cf"/><path d="m122 438h320v16h-320z" fill="#95a4b6"/><path d="m70 426v-368h320v448h-240z" fill="#fff"/><path d="m118 186h224v144h-224z" fill="#dce1e7"/><path d="m118 314h224v16h-224z" fill="#b9c2cf"/><path d="m206 217.432 64.569 40.568-64.569 40.569z" fill="#fff"/><path d="m150 490h240v16h-240z" fill="#dce1e7"/><path d="m70 426h80v80" fill="#95a4b6"/><g fill="#012d4a"><path d="m448 0h-332v52h-52v376.485l83.515 83.515h248.485v-52h52zm-304 491.515-59.515-59.515h59.515zm240 8.485h-228v-80h-80v-356h308zm52-52h-40v-396h-268v-40h308z"/><path d="m118 116h160v12h-160z"/><path d="m118 148h128v12h-128z"/><path d="m118 356h224v12h-224z"/><path d="m118 388h224v12h-224z"/><path d="m182 420h160v12h-160z"/><path d="m348 180h-236v156h236zm-12 144h-212v-132h212z"/><path d="m200 206.576v102.849l81.847-51.425zm12 21.712 47.29 29.712-47.29 29.712z"/></g></g></svg>