<svg id="no-cam" enable-background="new 0 0 300 300" height="512" viewBox="0 0 300 300" width="512" xmlns="http://www.w3.org/2000/svg"><g><circle cx="111.695" cy="117.432" fill="#d2ddff" r="86"/><g><path d="m223.752 211.432h-140.113c-5.492 0-9.943-4.452-9.943-9.943v-96.113c0-5.492 4.452-9.943 9.943-9.943h140.113c5.492 0 9.943 4.452 9.943 9.943v96.113c0 5.491-4.452 9.943-9.943 9.943z" fill="#6b4f5b"/><path d="m223.75 215.432h-140.109c-7.691 0-13.945-6.256-13.945-13.943v-96.113c0-7.688 6.254-13.943 13.945-13.943h140.109c7.691 0 13.945 6.256 13.945 13.943v96.113c0 7.687-6.254 13.943-13.945 13.943zm-140.109-116c-3.277 0-5.945 2.666-5.945 5.943v96.113c0 3.277 2.668 5.943 5.945 5.943h140.109c3.277 0 5.945-2.666 5.945-5.943v-96.113c0-3.277-2.668-5.943-5.945-5.943z" fill="#4c241d"/></g><path d="m233.695 143.432h-160c-2.211 0-4-1.791-4-4s1.789-4 4-4h160c2.211 0 4 1.791 4 4s-1.789 4-4 4z" fill="#4c241d"/><g><path d="m89.695 83.432h24v12h-24z" fill="#f53e28"/><path d="m113.695 99.432h-24c-2.211 0-4-1.791-4-4v-12c0-2.209 1.789-4 4-4h24c2.211 0 4 1.791 4 4v12c0 2.209-1.789 4-4 4zm-20-8h16v-4h-16z" fill="#4c241d"/></g><g><path d="m124.287 95.581 11.402-17.131c2.918-4.385 7.836-7.019 13.103-7.019h15.843c4.789 0 9.318 2.181 12.305 5.925l14.538 18.225z" fill="#b5a19c"/><path d="m191.477 99.582h-67.191c-1.477 0-2.828-.811-3.527-2.111-.695-1.301-.621-2.877.199-4.105l11.402-17.131c3.668-5.512 9.812-8.803 16.434-8.803h15.844c6.039 0 11.664 2.707 15.43 7.428l14.539 18.229c.957 1.201 1.141 2.846.477 4.23-.67 1.382-2.072 2.263-3.607 2.263zm-59.723-8h51.418l-9.359-11.732c-2.238-2.807-5.586-4.418-9.176-4.418h-15.844c-3.938 0-7.594 1.957-9.777 5.236z" fill="#4c241d"/></g><g><circle cx="151.737" cy="150" fill="#b5a19c" r="38.679"/><path d="m151.738 192.68c-23.535 0-42.68-19.146-42.68-42.68s19.145-42.68 42.68-42.68c23.531 0 42.676 19.146 42.676 42.68s-19.144 42.68-42.676 42.68zm0-77.36c-19.121 0-34.68 15.557-34.68 34.68s15.559 34.68 34.68 34.68 34.676-15.557 34.676-34.68-15.555-34.68-34.676-34.68z" fill="#4c241d"/></g><path d="m151.738 272.568c-67.586 0-122.57-54.984-122.57-122.568s54.984-122.568 122.57-122.568c67.582 0 122.566 54.984 122.566 122.568s-54.984 122.568-122.566 122.568zm0-237.136c-63.176 0-114.57 51.395-114.57 114.568s51.395 114.568 114.57 114.568c63.172 0 114.566-51.395 114.566-114.568s-51.394-114.568-114.566-114.568z" fill="#e66353"/><g><circle cx="151.737" cy="150" fill="#26deeb" r="23.338"/><path d="m151.738 177.338c-15.074 0-27.34-12.264-27.34-27.338s12.266-27.338 27.34-27.338 27.336 12.264 27.336 27.338-12.262 27.338-27.336 27.338zm0-46.676c-10.664 0-19.34 8.676-19.34 19.338s8.676 19.338 19.34 19.338c10.66 0 19.336-8.676 19.336-19.338s-8.676-19.338-19.336-19.338z" fill="#4c241d"/></g><g><circle cx="208.618" cy="137.523" fill="#e5efef" r="9.101"/><path d="m208.617 150.623c-7.223 0-13.102-5.877-13.102-13.1 0-7.225 5.879-13.102 13.102-13.102s13.102 5.877 13.102 13.102c0 7.223-5.879 13.1-13.102 13.1zm0-18.201c-2.812 0-5.102 2.289-5.102 5.102s2.289 5.1 5.102 5.1 5.102-2.287 5.102-5.1-2.289-5.102-5.102-5.102z" fill="#4c241d"/></g><path d="m65.695 235.432c-1.023 0-2.047-.391-2.828-1.172-1.562-1.562-1.562-4.094 0-5.656l166.457-166.458c1.562-1.562 4.094-1.562 5.656 0s1.562 4.094 0 5.656l-166.457 166.458c-.781.781-1.804 1.172-2.828 1.172z" fill="#e66353"/></g></svg>