<svg id="Flat" height="512" viewBox="0 0 512 512" width="512" xmlns="http://www.w3.org/2000/svg"><path d="m72 200v-40a136 136 0 0 1 136-136 136 136 0 0 1 136 136v40z" fill="#734b39"/><circle cx="312" cy="200" fill="#f0c6a4" r="32"/><circle cx="104" cy="200" fill="#f0c6a4" r="32"/><path d="m104 160h72c35.346 0 64-32.235 64-72a72 72 0 0 1 72 72v32a104 104 0 0 1 -104 104 104 104 0 0 1 -104-104z" fill="#f7cca9"/><path d="m360 328v160h-304v-160a32 32 0 0 1 32-32h240a32 32 0 0 1 32 32z" fill="#e9eef2"/><path d="m360 344h112v144h-112z" fill="#eb423f"/><path d="m432 384h-32a8 8 0 0 1 0-16h32a8 8 0 0 1 0 16z" fill="#ffb632"/><path d="m440 416h-47a8 8 0 0 1 0-16h47a8 8 0 0 1 0 16z" fill="#ffb632"/><path d="m456 440h16a16 16 0 0 1 16 16v32a0 0 0 0 1 0 0h-48a0 0 0 0 1 0 0v-32a16 16 0 0 1 16-16z" fill="#f7cca9" transform="matrix(0 1 -1 0 928 0)"/><path d="m104.006 448a8 8 0 0 1 -7.161-4.424l-80-160a8 8 0 1 1 14.31-7.156l80 160a8 8 0 0 1 -7.149 11.58z" fill="#c3c6c7"/><path d="m248 344h112v144h-112z" fill="#d13330"/><path d="m104 440h16a16 16 0 0 1 16 16v32a0 0 0 0 1 0 0h-48a0 0 0 0 1 0 0v-32a16 16 0 0 1 16-16z" fill="#f7cca9" transform="matrix(0 -1 1 0 -352 576)"/><path d="m208 263.958c-9.567 0-19.136-3.1-28.438-9.3a8 8 0 1 1 8.876-13.312c13.345 8.9 25.779 8.9 39.124 0a8 8 0 0 1 8.876 13.312c-9.302 6.2-18.871 9.3-28.438 9.3z" fill="#452d23"/><path d="m200 296h16v192h-16z" fill="#e1e3e6"/><path d="m184 488 8-144h32l8 144h-24z" fill="#4f5659"/><path d="m192 296h32v48h-32z" fill="#606669"/><path d="m216 296-64 48v-48z" fill="#dadcde"/><path d="m200 296 64 48v-48z" fill="#dadcde"/><path d="m168 152a40.068 40.068 0 0 0 -39.195 32h-24.805v16h24.805a40 40 0 1 0 39.195-48zm0 64a24 24 0 1 1 24-24 24.028 24.028 0 0 1 -24 24z" fill="#4f5659"/><circle cx="168" cy="192" fill="#452d23" r="8"/><path d="m312 184h-24.8a40 40 0 1 0 0 16h24.8zm-64 32a24 24 0 1 1 24-24 24.028 24.028 0 0 1 -24 24z" fill="#4f5659"/><circle cx="248" cy="192" fill="#452d23" r="8"/></svg>