<svg height="512" viewBox="0 0 64 64" width="512" xmlns="http://www.w3.org/2000/svg"><g id="locked"><rect fill="#ffeb99" height="34" rx="4" width="58" x="3" y="27"/><path d="m26.73 45.27-23.73-12.27v-2a4 4 0 0 1 4-4h12v8a2.006 2.006 0 0 0 2 2h22a2.006 2.006 0 0 0 2-2v-8h12a4 4 0 0 1 4 4v2l-23.73 12.27-5.27 2.73z" fill="#ffcd00"/><path d="m61 33v24a4 4 0 0 1 -4 4h-2a4 4 0 0 0 4-4v-22.97z" fill="#ffcd00"/><path d="m61 31v2l-2 1.03v-3.03a4 4 0 0 0 -4-4h2a4 4 0 0 1 4 4z" fill="#cca400"/><path d="m53 61h-42l15.73-15.73 5.27 2.73 5.27-2.73z" fill="#ffcd00"/><rect fill="#57a4ff" height="18" rx="2" width="26" x="19" y="19"/><path d="m45 21v14a2.006 2.006 0 0 1 -2 2h-2a2.006 2.006 0 0 0 2-2v-14a2.006 2.006 0 0 0 -2-2h2a2.006 2.006 0 0 1 2 2z" fill="#2488ff"/><path d="m40 7v12h-4v-10a2.006 2.006 0 0 0 -2-2h-4a2.006 2.006 0 0 0 -2 2v10h-4v-12a4 4 0 0 1 4-4h8a4 4 0 0 1 4 4z" fill="#c6c5ca"/><circle cx="32" cy="26" fill="#00d7df" r="3"/><path d="m57 26h-11v-5a3 3 0 0 0 -3-3h-2v-11a5.006 5.006 0 0 0 -5-5h-8a5.006 5.006 0 0 0 -5 5v11h-2a3 3 0 0 0 -3 3v5h-11a5.006 5.006 0 0 0 -5 5v26a5.006 5.006 0 0 0 5 5h50a5.006 5.006 0 0 0 5-5v-26a5.006 5.006 0 0 0 -5-5zm-32-19a3 3 0 0 1 3-3h8a3 3 0 0 1 3 3v11h-2v-9a3 3 0 0 0 -3-3h-4a3 3 0 0 0 -3 3v9h-2zm10 11h-6v-9a1 1 0 0 1 1-1h4a1 1 0 0 1 1 1zm-15 3a1 1 0 0 1 1-1h22a1 1 0 0 1 1 1v14a1 1 0 0 1 -1 1h-22a1 1 0 0 1 -1-1zm-13 7h11v7a3 3 0 0 0 3 3h22a3 3 0 0 0 3-3v-7h11a3 3 0 0 1 3 3v1.391l-28 14.483-28-14.483v-1.391a3 3 0 0 1 3-3zm24.541 20.889a1 1 0 0 0 .918 0l4.624-2.389 13.503 13.5h-37.172l13.5-13.5zm-27.541 8.111v-22.357l21.053 10.89-14.467 14.467h-3.586a3 3 0 0 1 -3-3zm53 3h-3.586l-14.467-14.467 21.053-10.89v22.357a3 3 0 0 1 -3 3z"/><path d="m31 29.858v4.142h2v-4.142a4 4 0 1 0 -2 0zm1-5.858a2 2 0 1 1 -2 2 2 2 0 0 1 2-2z"/></g></svg>