<svg id="Capa_1" enable-background="new 0 0 512 512" height="512" viewBox="0 0 512 512" width="512" xmlns="http://www.w3.org/2000/svg"><g><path d="m326 297.041h-140c-1.438 0-2.87-.207-4.25-.615-101.929-30.112-175.26-118.121-178.331-121.853-4.036-4.903-4.547-11.816-1.275-17.26 1.755-2.92 43.729-72.051 108.224-117.547 40.708-28.717 93.777-32.762 138.499-10.556l7.133 3.543 7.134-3.542c44.72-22.206 97.79-18.162 138.499 10.555 64.494 45.496 106.469 114.627 108.224 117.547 3.272 5.443 2.761 12.357-1.275 17.26-3.071 3.732-76.402 91.741-178.331 121.853-1.381.408-2.813.615-4.251.615z" fill="#ff824d"/><g><path d="m509.856 157.314c-1.755-2.92-43.729-72.051-108.224-117.547-40.709-28.717-93.779-32.761-138.499-10.555l-7.133 3.541v264.288h70c1.438 0 2.87-.207 4.25-.615 101.929-30.112 175.26-118.121 178.331-121.853 4.036-4.902 4.547-11.816 1.275-17.259z" fill="#ff465a"/></g><path d="m326 206.647c-.008 0-.015 0-.022 0l-140-.21c-.918-.001-1.834-.087-2.736-.256-57.676-10.793-98.063-33.908-99.755-34.887-4.122-2.386-6.867-6.588-7.395-11.322s1.226-9.437 4.722-12.671c1.268-1.173 31.58-28.867 77.546-41.085 7.914-2.104 16.647-3.704 25.957-4.755.551-.062 1.105-.094 1.659-.095l93.084-.149c25.611-2.621 52.747-.805 74.581 5 45.966 12.219 76.278 39.913 77.546 41.085 3.477 3.216 5.229 7.885 4.729 12.595s-3.195 8.906-7.27 11.321c-1.678.994-41.765 24.474-99.931 35.183-.895.163-1.804.246-2.715.246z" fill="#ff465a"/><g><path d="m431.186 147.301c-1.268-1.173-31.58-28.867-77.546-41.085-21.834-5.804-48.97-7.621-74.581-5l-23.059.037v105.289l69.978.105h.022c.911 0 1.82-.083 2.716-.248 58.166-10.708 98.253-34.188 99.931-35.183 4.074-2.415 6.77-6.611 7.27-11.321s-1.254-9.378-4.731-12.594z" fill="#cb2d1e"/></g><path d="m256 97h-10l-75 170v215c0 8.284 6.716 15 15 15h140c8.284 0 15-6.716 15-15v-300c0-46.869-38.131-85-85-85z" fill="#ffddce"/><g><g><path d="m256 97v400h70c8.284 0 15-6.716 15-15v-300c0-46.869-38.131-85-85-85z" fill="#ffcbbc"/></g></g><path d="m186 267h-15v-175c0-8.284 6.716-15 15-15h35c19.33 0 35 15.67 35 35v85c0 38.66-31.34 70-70 70z" fill="#f0f9ff"/></g></svg>