<?xml version="1.0" encoding="iso-8859-1"?>
<!-- Generator: Adobe Illustrator 19.0.0, SVG Export Plug-In . SVG Version: 6.00 Build 0)  -->
<svg version="1.1" id="Capa_1" xmlns="http://www.w3.org/2000/svg" xmlns:xlink="http://www.w3.org/1999/xlink" x="0px" y="0px"
	 viewBox="0 0 512 512" style="enable-background:new 0 0 512 512;" xml:space="preserve">
<path style="fill:#ECF0F1;" d="M483.31,512H28.69C12.844,512,0,499.156,0,483.31V105.931h512V483.31
	C512,499.156,499.156,512,483.31,512z"/>
<path style="fill:#687492;" d="M512,105.931H0V28.69C0,12.844,12.844,0,28.69,0H483.31C499.156,0,512,12.844,512,28.69V105.931z"/>
<rect x="35.31" y="35.31" style="fill:#E64C3C;" width="35.31" height="35.31"/>
<rect x="105.931" y="35.31" style="fill:#F0C419;" width="35.31" height="35.31"/>
<rect x="176.552" y="35.31" style="fill:#24AE5F;" width="35.31" height="35.31"/>
<g>
	<path style="fill:#26B99A;" d="M79.448,211.862c-2.26,0-4.52-0.865-6.241-2.586c-3.452-3.452-3.452-9.031,0-12.482l35.31-35.31
		c3.443-3.452,9.039-3.452,12.482,0c3.452,3.452,3.452,9.031,0,12.482l-35.31,35.31C83.968,210.997,81.708,211.862,79.448,211.862z"
		/>
	<path style="fill:#26B99A;" d="M150.069,211.862c-2.26,0-4.52-0.865-6.241-2.586l-35.31-35.31c-3.452-3.452-3.452-9.031,0-12.482
		c3.443-3.452,9.039-3.452,12.482,0l35.31,35.31c3.452,3.452,3.452,9.031,0,12.482C154.589,210.997,152.329,211.862,150.069,211.862
		z"/>
	<path style="fill:#26B99A;" d="M132.414,194.207c-2.26,0-4.52-0.865-6.241-2.586c-3.452-3.452-3.452-9.031,0-12.482l35.31-35.31
		c3.443-3.452,9.039-3.452,12.482,0c3.452,3.452,3.452,9.031,0,12.482l-35.31,35.31
		C136.934,193.342,134.674,194.207,132.414,194.207z"/>
	<path style="fill:#26B99A;" d="M203.034,194.207c-2.26,0-4.52-0.865-6.241-2.586l-35.31-35.31c-3.452-3.452-3.452-9.031,0-12.482
		c3.443-3.452,9.039-3.452,12.482,0l35.31,35.31c3.452,3.452,3.452,9.031,0,12.482C207.554,193.342,205.294,194.207,203.034,194.207
		z"/>
</g>
<g>
	<path style="fill:#BDC3C7;" d="M203.034,291.31H61.793c-4.873,0-8.828-3.946-8.828-8.828s3.955-8.828,8.828-8.828h141.241
		c4.873,0,8.828,3.946,8.828,8.828S207.907,291.31,203.034,291.31z"/>
	<path style="fill:#BDC3C7;" d="M158.897,256H61.793c-4.873,0-8.828-3.946-8.828-8.828s3.955-8.828,8.828-8.828h97.103
		c4.873,0,8.828,3.946,8.828,8.828S163.769,256,158.897,256z"/>
</g>
<g>
	<path style="fill:#26B99A;" d="M326.621,211.862c-2.26,0-4.52-0.865-6.241-2.586c-3.452-3.452-3.452-9.031,0-12.482l35.31-35.31
		c3.443-3.452,9.039-3.452,12.482,0c3.452,3.452,3.452,9.031,0,12.482l-35.31,35.31C331.14,210.997,328.881,211.862,326.621,211.862
		z"/>
	<path style="fill:#26B99A;" d="M397.241,211.862c-2.26,0-4.52-0.865-6.241-2.586l-35.31-35.31c-3.452-3.452-3.452-9.031,0-12.482
		c3.443-3.452,9.039-3.452,12.482,0l35.31,35.31c3.452,3.452,3.452,9.031,0,12.482C401.761,210.997,399.501,211.862,397.241,211.862
		z"/>
	<path style="fill:#26B99A;" d="M379.586,194.207c-2.26,0-4.52-0.865-6.241-2.586c-3.452-3.452-3.452-9.031,0-12.482l35.31-35.31
		c3.443-3.452,9.039-3.452,12.482,0c3.452,3.452,3.452,9.031,0,12.482l-35.31,35.31
		C384.106,193.342,381.846,194.207,379.586,194.207z"/>
	<path style="fill:#26B99A;" d="M450.207,194.207c-2.26,0-4.52-0.865-6.241-2.586l-35.31-35.31c-3.452-3.452-3.452-9.031,0-12.482
		c3.443-3.452,9.039-3.452,12.482,0l35.31,35.31c3.452,3.452,3.452,9.031,0,12.482C454.727,193.342,452.467,194.207,450.207,194.207
		z"/>
</g>
<g>
	<path style="fill:#BDC3C7;" d="M450.207,291.31H308.966c-4.873,0-8.828-3.946-8.828-8.828s3.955-8.828,8.828-8.828h141.241
		c4.873,0,8.828,3.946,8.828,8.828S455.08,291.31,450.207,291.31z"/>
	<path style="fill:#BDC3C7;" d="M406.069,256h-97.103c-4.873,0-8.828-3.946-8.828-8.828s3.955-8.828,8.828-8.828h97.103
		c4.873,0,8.828,3.946,8.828,8.828S410.942,256,406.069,256z"/>
</g>
<g>
	<path style="fill:#26B99A;" d="M79.448,397.241c-2.26,0-4.52-0.865-6.241-2.586c-3.452-3.452-3.452-9.031,0-12.482l35.31-35.31
		c3.443-3.452,9.039-3.452,12.482,0c3.452,3.452,3.452,9.031,0,12.482l-35.31,35.31C83.968,396.376,81.708,397.241,79.448,397.241z"
		/>
	<path style="fill:#26B99A;" d="M150.069,397.241c-2.26,0-4.52-0.865-6.241-2.586l-35.31-35.31c-3.452-3.452-3.452-9.031,0-12.482
		c3.443-3.452,9.039-3.452,12.482,0l35.31,35.31c3.452,3.452,3.452,9.031,0,12.482C154.589,396.376,152.329,397.241,150.069,397.241
		z"/>
	<path style="fill:#26B99A;" d="M132.414,379.586c-2.26,0-4.52-0.865-6.241-2.586c-3.452-3.452-3.452-9.031,0-12.482l35.31-35.31
		c3.443-3.452,9.039-3.452,12.482,0c3.452,3.452,3.452,9.031,0,12.482L138.655,377C136.934,378.721,134.674,379.586,132.414,379.586
		z"/>
	<path style="fill:#26B99A;" d="M203.034,379.586c-2.26,0-4.52-0.865-6.241-2.586l-35.31-35.31c-3.452-3.452-3.452-9.031,0-12.482
		c3.443-3.452,9.039-3.452,12.482,0l35.31,35.31c3.452,3.452,3.452,9.031,0,12.482C207.554,378.721,205.294,379.586,203.034,379.586
		z"/>
</g>
<g>
	<path style="fill:#BDC3C7;" d="M203.034,476.69H61.793c-4.873,0-8.828-3.946-8.828-8.828c0-4.882,3.955-8.828,8.828-8.828h141.241
		c4.873,0,8.828,3.946,8.828,8.828C211.862,472.744,207.907,476.69,203.034,476.69z"/>
	<path style="fill:#BDC3C7;" d="M158.897,441.379H61.793c-4.873,0-8.828-3.946-8.828-8.828c0-4.882,3.955-8.828,8.828-8.828h97.103
		c4.873,0,8.828,3.946,8.828,8.828C167.724,437.433,163.769,441.379,158.897,441.379z"/>
</g>
<g>
	<path style="fill:#26B99A;" d="M326.621,397.241c-2.26,0-4.52-0.865-6.241-2.586c-3.452-3.452-3.452-9.031,0-12.482l35.31-35.31
		c3.443-3.452,9.039-3.452,12.482,0c3.452,3.452,3.452,9.031,0,12.482l-35.31,35.31C331.14,396.376,328.881,397.241,326.621,397.241
		z"/>
	<path style="fill:#26B99A;" d="M397.241,397.241c-2.26,0-4.52-0.865-6.241-2.586l-35.31-35.31c-3.452-3.452-3.452-9.031,0-12.482
		c3.443-3.452,9.039-3.452,12.482,0l35.31,35.31c3.452,3.452,3.452,9.031,0,12.482C401.761,396.376,399.501,397.241,397.241,397.241
		z"/>
	<path style="fill:#26B99A;" d="M379.586,379.586c-2.26,0-4.52-0.865-6.241-2.586c-3.452-3.452-3.452-9.031,0-12.482l35.31-35.31
		c3.443-3.452,9.039-3.452,12.482,0c3.452,3.452,3.452,9.031,0,12.482L385.827,377C384.106,378.721,381.846,379.586,379.586,379.586
		z"/>
	<path style="fill:#26B99A;" d="M450.207,379.586c-2.26,0-4.52-0.865-6.241-2.586l-35.31-35.31c-3.452-3.452-3.452-9.031,0-12.482
		c3.443-3.452,9.039-3.452,12.482,0l35.31,35.31c3.452,3.452,3.452,9.031,0,12.482C454.727,378.721,452.467,379.586,450.207,379.586
		z"/>
</g>
<g>
	<path style="fill:#BDC3C7;" d="M450.207,476.69H308.966c-4.873,0-8.828-3.946-8.828-8.828c0-4.882,3.955-8.828,8.828-8.828h141.241
		c4.873,0,8.828,3.946,8.828,8.828C459.034,472.744,455.08,476.69,450.207,476.69z"/>
	<path style="fill:#BDC3C7;" d="M406.069,441.379h-97.103c-4.873,0-8.828-3.946-8.828-8.828c0-4.882,3.955-8.828,8.828-8.828h97.103
		c4.873,0,8.828,3.946,8.828,8.828C414.897,437.433,410.942,441.379,406.069,441.379z"/>
</g>
<g>
</g>
<g>
</g>
<g>
</g>
<g>
</g>
<g>
</g>
<g>
</g>
<g>
</g>
<g>
</g>
<g>
</g>
<g>
</g>
<g>
</g>
<g>
</g>
<g>
</g>
<g>
</g>
<g>
</g>
</svg>
