<svg height="512" viewBox="0 0 128 128" width="512" xmlns="http://www.w3.org/2000/svg"><path d="m114.263 15.557h-96.526a8 8 0 0 0 -8 8v66.26a8 8 0 0 0 8 8h36.843l-1.806 12.088h-9.292a3.156 3.156 0 0 0 -3.157 3.156v.227a3.156 3.156 0 0 0 3.156 3.155h45.038a3.156 3.156 0 0 0 3.156-3.156v-.226a3.156 3.156 0 0 0 -3.156-3.156h-9.293l-1.806-12.088h36.843a8 8 0 0 0 8-8v-66.26a8 8 0 0 0 -8-8z" fill="#e6e7e8"/><rect fill="#6dc9f7" height="80.26" rx="7" width="110.526" x="6.737" y="12.557"/><path d="m110.263 12.557h-96.526a7 7 0 0 0 -7 7v59.6h110.526v-59.6a7 7 0 0 0 -7-7z" fill="#d4fbff"/><path d="m68.738 36.773h33.962v19.094h-33.962z" fill="#0089ef"/><path d="m65.524 33.812a3.213 3.213 0 0 0 -3.213 3.214v18.588a3.214 3.214 0 1 0 6.427 0v-18.588a3.214 3.214 0 0 0 -3.214-3.214z" fill="#6dc9f7"/><path d="m46.77 34.552-16.286 11.768 16.286 11.768 15.541-2.221v-19.094z" fill="#ffd7e5"/><g fill="#fa759e"><circle cx="49.378" cy="46.32" r="1.842"/><path d="m24.244 20.058a2.944 2.944 0 1 0 2.943 2.942 2.944 2.944 0 0 0 -2.943-2.942z"/><circle cx="24.244" cy="69.638" r="2.943"/><path d="m43.447 24.526h5.182v5.182h-5.182z"/><path d="m43.447 62.932h5.182v5.182h-5.182z"/></g><path d="m110.263 12.557h-96.526a7 7 0 0 0 -7 7v3.368a7.368 7.368 0 0 1 7.368-7.368h95.795a7.368 7.368 0 0 1 7.368 7.368v-3.368a7 7 0 0 0 -7.005-7z" fill="#fff"/><rect fill="#0089ef" height="4.539" rx="2.156" width="49.349" x="37.326" y="106.905"/><path d="m72.259 92.817h-20.518l-2.105 14.088h24.728z" fill="#0089ef"/><path d="m65.524 59.828a4.207 4.207 0 0 0 4-2.961h33.176a1 1 0 0 0 1-1v-19.094a1 1 0 0 0 -1-1h-33.173a4.186 4.186 0 0 0 -7.968-.117l-14.648-2.093a.994.994 0 0 0 -.728.179l-16.283 11.767a1 1 0 0 0 0 1.621l16.283 11.77a1 1 0 0 0 .586.189.969.969 0 0 0 .142-.01l14.648-2.093a4.206 4.206 0 0 0 3.965 2.842zm36.176-4.961h-31.962v-17.094h31.962zm-38.39-17.842a2.214 2.214 0 0 1 4.428 0v18.589a2.214 2.214 0 0 1 -4.428 0zm-29.736 10.295h13.153a2.842 2.842 0 1 0 0-2h-13.153l13.454-9.72 14.282 2.04v17.36l-14.282 2.041zm14.962-1a.842.842 0 1 1 .842.842.843.843 0 0 1 -.842-.842z" fill="#3a2c60"/><path d="m43.447 69.114h5.182a1 1 0 0 0 1-1v-5.182a1 1 0 0 0 -1-1h-5.182a1 1 0 0 0 -1 1v1.54a18.179 18.179 0 0 1 0-36.3v1.541a1 1 0 0 0 1 1h5.182a1 1 0 0 0 1-1v-5.187a1 1 0 0 0 -1-1h-5.182a1 1 0 0 0 -1 1v1.641a20.2 20.2 0 0 0 -17.2 11.447v-10.814a3.943 3.943 0 1 0 -2 0v39.039a3.943 3.943 0 1 0 2 0v-10.813a20.2 20.2 0 0 0 17.2 11.446v1.642a1 1 0 0 0 1 1zm1-43.588h3.182v3.182h-3.182zm-22.147-2.526a1.943 1.943 0 1 1 1.943 1.943 1.946 1.946 0 0 1 -1.943-1.943zm3.886 46.636a1.943 1.943 0 1 1 -1.943-1.943 1.946 1.946 0 0 1 1.944 1.945zm18.26-5.706h3.182v3.182h-3.181z" fill="#3a2c60"/><path d="m110.264 11.557h-96.527a8.009 8.009 0 0 0 -8 8v66.26a8.009 8.009 0 0 0 8 8h36.843l-1.806 12.088h-9.293a3.159 3.159 0 0 0 -3.156 3.156v.227a3.159 3.159 0 0 0 3.156 3.155h45.037a3.159 3.159 0 0 0 3.157-3.155v-.227a3.159 3.159 0 0 0 -3.157-3.156h-9.292l-1.806-12.088h36.844a8.009 8.009 0 0 0 8-8v-17.654a1 1 0 0 0 -2 0v9.992h-108.527v-58.6a6.007 6.007 0 0 1 6-6h96.527a6.007 6.007 0 0 1 6 6v29.463a1 1 0 0 0 2 0v-29.461a8.009 8.009 0 0 0 -8-8zm-24.589 97.5v.227a1.157 1.157 0 0 1 -1.157 1.155h-45.037a1.157 1.157 0 0 1 -1.156-1.155v-.227a1.157 1.157 0 0 1 1.156-1.156h45.037a1.157 1.157 0 0 1 1.157 1.16zm-12.475-3.152h-22.4l1.8-12.088h18.8zm43.06-25.75v5.662a6.007 6.007 0 0 1 -6 6h-96.523a6.007 6.007 0 0 1 -6-6v-5.662z" fill="#3a2c60"/><path d="m117.264 52.229a1 1 0 0 0 -1 1v10.877a1 1 0 0 0 2 0v-10.877a1 1 0 0 0 -1-1z" fill="#3a2c60"/><path d="m93.228 83.491a2.106 2.106 0 1 0 2.106 2.109 2.106 2.106 0 0 0 -2.106-2.109z" fill="#fff"/><path d="m100.6 83.491a2.106 2.106 0 1 0 2.1 2.109 2.105 2.105 0 0 0 -2.1-2.109z" fill="#0089ef"/><path d="m107.965 83.491a2.106 2.106 0 1 0 2.106 2.106 2.106 2.106 0 0 0 -2.106-2.106z" fill="#fa759e"/></svg>